# xmcd CD database file
#
# Track frame offsets:
#	150
#	21657
#	40054
#	53914
#	72983
#	91324
#	104921
#	128081
#	146365
#	168381
#	190176
#	214860
#	236690
#	253696
#	282655
#
# Disc length: 3987 seconds
#
# Revision: 0
# Processed by: cddbd v1.5.1PL0 Copyright (c) Steve Scherf et al.
# Submitted via: CDex 1.51
#
DISCID=e80f910f
DTITLE=Paul Rodger - Muddy Water blues
DYEAR=1900
DGENRE=Blues
TTITLE0=Born under a bad sign
TTITLE1=Good morning little school girl (part I)
TTITLE2=Good morning little school girl (part II)
TTITLE3=I can't be satisfied
TTITLE4=Just want to make love with you
TTITLE5=I'm ready
TTITLE6=I'm your hookie coochie man
TTITLE7=Lousiana blues
TTITLE8=Muday water blues (acostic version)
TTITLE9=Muday water blues (electric version)
TTITLE10=Rollin' stone
TTITLE11=She moves me
TTITLE12=She 's alright
TTITLE13=Standing around crying
TTITLE14=The Hunter
EXTD=
EXTT0=
EXTT1=
EXTT2=
EXTT3=
EXTT4=
EXTT5=
EXTT6=
EXTT7=
EXTT8=
EXTT9=
EXTT10=
EXTT11=
EXTT12=
EXTT13=
EXTT14=
PLAYORDER=
